<svg xmlns="http://www.w3.org/2000/svg" viewBox="0 0 640 480" role="img" aria-labelledby="title">
  <title id="title">Woven cotton throw blanket product illustration</title>
  <rect width="640" height="480" rx="36" fill="#fff7ea"/>
  <path d="M196 102h250c38 0 64 28 56 66l-44 206c-8 38-40 64-78 64H130c-38 0-64-28-56-66l44-206c8-38 40-64 78-64z" fill="#d95d39"/>
  <path d="M176 126l-58 284" stroke="#f1c27d" stroke-width="24"/>
  <path d="M252 102l-64 336" stroke="#f1c27d" stroke-width="20"/>
  <path d="M332 102l-64 336" stroke="#f1c27d" stroke-width="20"/>
  <path d="M414 112l-64 314" stroke="#f1c27d" stroke-width="20"/>
  <path d="M104 236h374" stroke="#fff3d7" stroke-width="18"/>
  <path d="M84 326h374" stroke="#fff3d7" stroke-width="18"/>
  <path d="M116 422c42 18 88 18 136 0 46-18 92-18 138 0" fill="none" stroke="#17211d" stroke-width="14" stroke-linecap="round"/>
</svg>
